<?xml version="1.0" encoding="UTF-8" standalone="no"?>
<!-- Created with Inkscape (http://www.inkscape.org/) -->

<svg
   xmlns:dc="http://purl.org/dc/elements/1.1/"
   xmlns:cc="http://creativecommons.org/ns#"
   xmlns:rdf="http://www.w3.org/1999/02/22-rdf-syntax-ns#"
   xmlns:svg="http://www.w3.org/2000/svg"
   xmlns="http://www.w3.org/2000/svg"
   xmlns:sodipodi="http://sodipodi.sourceforge.net/DTD/sodipodi-0.dtd"
   xmlns:inkscape="http://www.inkscape.org/namespaces/inkscape"
   width="196.36162mm"
   height="47.494171mm"
   viewBox="0 0 196.36162 47.494171"
   version="1.1"
   id="svg8"
   inkscape:version="0.92.2 (5c3e80d, 2017-08-06)"
   sodipodi:docname="drawing.svg">
  <defs
     id="defs2" />
  <sodipodi:namedview
     id="base"
     pagecolor="#ffffff"
     bordercolor="#666666"
     borderopacity="1.0"
     inkscape:pageopacity="0.0"
     inkscape:pageshadow="2"
     inkscape:zoom="1.2432572"
     inkscape:cx="387.80027"
     inkscape:cy="71.791833"
     inkscape:document-units="mm"
     inkscape:current-layer="layer1"
     showgrid="false"
     inkscape:window-width="1366"
     inkscape:window-height="666"
     inkscape:window-x="-8"
     inkscape:window-y="-8"
     inkscape:window-maximized="1" />
  <metadata
     id="metadata5">
    <rdf:RDF>
      <cc:Work
         rdf:about="">
        <dc:format>image/svg+xml</dc:format>
        <dc:type
           rdf:resource="http://purl.org/dc/dcmitype/StillImage" />
        <dc:title></dc:title>
      </cc:Work>
    </rdf:RDF>
  </metadata>
  <g
     inkscape:label="Layer 1"
     inkscape:groupmode="layer"
     id="layer1"
     transform="translate(-3.2278454,-2.4880022)">
    <g
       id="g21"
       transform="translate(-10.337848,-28.194848)">
      <path
         style="fill:#fbd1d2;stroke-width:0.26458332"
         d="m 27.115318,77.601913 c -0.121795,-0.327422 -0.172231,-0.910746 -0.112078,-1.296273 0.122625,-0.785929 -0.74184,-3.480292 -1.282434,-3.997087 -0.976849,-0.933844 -3.26444,-1.908104 -5.180011,-2.206109 -0.618464,-0.09621 -1.124479,-0.249714 -1.124479,-0.341114 0,-0.0914 -0.334538,-0.314259 -0.743417,-0.495247 -1.630463,-0.721712 -3.346751,-2.924453 -4.482693,-5.753232 -0.5838,-1.453806 -0.636249,-1.944016 -0.622785,-5.820833 0.01899,-5.46725 0.283558,-10.251189 0.584569,-10.570104 0.141797,-0.150231 0.237242,0.286417 0.237242,1.085344 0,1.515938 1.179468,6.537949 1.743818,7.42493 0.205067,0.322302 0.372849,0.720242 0.372849,0.88431 0,0.164068 0.238125,0.601032 0.529167,0.971031 0.291041,0.369999 0.529166,0.546111 0.529166,0.391361 0,-0.154752 -0.192767,-0.474133 -0.428373,-0.709739 -0.235605,-0.235607 -0.357805,-0.498941 -0.271555,-0.585193 0.08625,-0.08625 -0.0035,-0.467531 -0.199355,-0.847295 -1.014419,-1.966558 -1.284525,-5.775125 -0.593137,-8.363395 0.338217,-1.266146 1.374786,-3.558444 1.734832,-3.836458 0.09423,-0.07276 0.559126,-0.668073 1.033103,-1.322917 0.473977,-0.654844 0.917615,-1.159875 0.985862,-1.122291 0.06825,0.03758 0.900905,-0.676792 1.85035,-1.5875 1.969772,-1.889407 3.99188,-4.719301 4.20812,-5.889167 0.17239,-0.932642 0.77559,-2.701339 0.996665,-2.922414 0.291686,-0.291686 0.542979,6.078352 0.41486,10.516293 l -0.128313,4.444662 h 0.754721 0.754721 v -5.64242 -5.642421 l 0.661458,-0.621408 0.661458,-0.621408 v 6.263829 6.263828 h 5.073204 5.073205 l -0.621408,0.661459 c -0.615083,0.654726 -0.666719,0.661458 -5.073204,0.661458 h -4.451797 v 14.373672 14.373668 l -0.661458,0.621409 -0.661458,0.621408 V 61.97147 46.976393 h -1.198929 c -0.902894,0 -1.239474,0.114327 -1.363133,0.463021 -0.09031,0.254661 -0.343154,0.67138 -0.56187,0.926041 -0.218717,0.254662 -0.301417,0.463021 -0.18378,0.463021 0.117638,0 -0.250863,0.429548 -0.818889,0.95455 -2.766201,2.556683 -3.664559,3.47488 -4.113973,4.204825 -1.324383,2.15108 0.06186,5.036275 3.420987,7.120096 1.49211,0.925626 3.083224,2.474746 3.55712,3.463237 0.492543,1.027388 0.605943,2.515409 0.578819,7.595219 -0.01555,2.912382 0.0636,4.107902 0.264583,3.996081 0.157725,-0.08776 0.137945,7.94e-4 -0.04396,0.19676 -0.181901,0.195972 -0.330729,0.689689 -0.330729,1.097148 0,0.889188 -0.45869,0.976138 -0.767665,0.145521 z M 19.151732,59.59022 c 0,-0.04739 -0.290074,-0.358679 -0.644609,-0.69175 -0.629132,-0.591037 -0.641116,-0.592217 -0.499086,-0.0491 0.08004,0.306067 0.25105,0.491265 0.380026,0.411554 0.128977,-0.07971 0.234503,-0.01884 0.234503,0.135265 0,0.15411 0.119062,0.280199 0.264583,0.280199 0.145521,0 0.264583,-0.03878 0.264583,-0.08617 z"
         id="path39"
         inkscape:connector-curvature="0" />
      <path
         style="fill:#e3a4a7;stroke-width:0.26458332"
         d="m 27.28767,78.045656 c -0.10914,-0.110665 -0.198437,-0.843016 -0.198437,-1.62745 0,-2.84232 -0.819369,-4.552521 -2.62965,-5.488654 -0.418347,-0.216336 -1.694459,-0.645414 -2.835804,-0.953508 -3.32247,-0.896863 -4.809026,-1.964478 -6.236339,-4.478818 -1.400929,-2.467864 -1.541399,-3.501763 -1.517961,-11.172617 0.01256,-4.110052 0.125918,-7.136042 0.270681,-7.22551 0.146236,-0.09038 0.250969,0.589884 0.253667,1.647616 0.01166,4.572016 2.083613,9.80537 4.481336,11.318985 0.532511,0.336161 1.867694,0.985661 2.967074,1.443332 1.09938,0.457673 2.491576,1.253868 3.093768,1.769321 0.602192,0.515456 1.094894,0.829604 1.094894,0.698111 0,-0.475776 -1.24795,-1.391938 -3.708338,-2.722417 -3.049094,-1.648822 -3.950649,-2.478963 -4.980696,-4.586155 -1.049947,-2.147903 -1.480774,-4.479534 -1.275786,-6.904545 0.313142,-3.704459 1.69423,-6.134368 5.45741,-9.601851 1.146116,-1.056058 2.521545,-2.51637 3.056509,-3.245136 0.997739,-1.359192 1.974452,-4.023633 1.978047,-5.396043 0.0011,-0.424436 0.07576,-0.697964 0.165881,-0.607842 0.211583,0.211584 0.176467,13.556375 -0.03745,14.230358 -0.141978,0.447336 -0.02865,0.510643 0.914092,0.510643 h 1.076163 v -5.64242 -5.642421 l 0.661458,-0.621408 0.661458,-0.621408 v 6.263829 6.263828 h 5.073204 5.073205 l -0.621408,0.661459 c -0.615083,0.654726 -0.666719,0.661458 -5.073204,0.661458 h -4.451797 v 14.378783 c 0,13.593916 -0.02641,14.402686 -0.483854,14.816666 -0.26612,0.240837 -0.563776,0.437883 -0.661458,0.437883 -0.09768,0 -0.177604,-6.6675 -0.177604,-14.816666 V 46.976393 h -1.28455 c -1.235562,0 -1.313404,0.04565 -2.04118,1.197021 -0.416146,0.658362 -1.461066,1.792744 -2.322044,2.520849 -1.963644,1.660598 -3.002482,2.958042 -3.336215,4.166724 -0.565598,2.048425 0.86711,4.612769 3.383806,6.056537 2.031578,1.165468 3.205547,2.195885 3.820228,3.353091 0.531926,1.00141 0.588976,1.543579 0.671966,6.385985 0.09882,5.76584 0.02526,7.699666 -0.281074,7.389056 z"
         id="path37"
         inkscape:connector-curvature="0" />
      <path
         style="fill:#a29d9d;stroke-width:0.26458332"
         d="m 27.266728,76.345142 c -0.315872,-2.857185 -0.604126,-3.773612 -1.430046,-4.54646 -1.008149,-0.943364 -2.066337,-1.437862 -4.200886,-1.963105 -3.264758,-0.803349 -4.633192,-1.800124 -6.208819,-4.522533 -1.406258,-2.429772 -1.645796,-4.370948 -1.445794,-11.716459 0.09699,-3.562175 0.212691,-6.513028 0.257114,-6.557451 0.04442,-0.04442 0.135456,1.143677 0.202295,2.640224 0.08977,2.00993 0.314736,3.314274 0.860878,4.991271 1.234213,3.789813 3.068457,5.761226 6.388251,6.865983 0.939148,0.312528 2.30011,1.036632 3.02436,1.609116 0.72425,0.572487 1.316818,0.923692 1.316818,0.780457 0,-0.484386 -1.168835,-1.353253 -3.565962,-2.650807 -4.48783,-2.429237 -6.252524,-5.31367 -6.253979,-10.222275 -0.0014,-4.714203 0.75693,-6.165717 5.862012,-11.22046 3.099846,-3.069281 3.804851,-4.241707 4.375237,-7.276041 0.31916,-1.697865 0.343819,-1.229686 0.29615,5.6226 l -0.052,7.474683 0.992187,-2.04e-4 0.992188,-2.05e-4 v -5.64242 -5.642421 l 0.661458,-0.621408 0.661458,-0.621408 v 6.263829 6.263828 h 5.073204 5.073205 l -0.621408,0.661459 c -0.615083,0.654726 -0.666719,0.661458 -5.073204,0.661458 h -4.451797 v 14.378783 c 0,13.593916 -0.02641,14.402686 -0.483854,14.816666 -0.26612,0.240837 -0.563776,0.437883 -0.661458,0.437883 -0.09768,0 -0.177604,-6.6675 -0.177604,-14.816666 V 46.976393 h -1.27316 c -1.132887,0 -1.341431,0.09474 -1.892815,0.859896 -0.340811,0.472942 -1.676892,1.855814 -2.96907,3.073049 -2.634072,2.481303 -3.125372,3.235175 -3.125372,4.795706 0,2.136326 1.168048,3.642567 4.598975,5.930554 1.181345,0.787804 2.352397,1.782426 2.602338,2.210273 0.738084,1.263441 1.021663,4.10813 0.942699,9.456563 -0.06402,4.336306 -0.104366,4.754408 -0.293599,3.042708 z"
         id="path35"
         inkscape:connector-curvature="0" />
      <path
         style="fill:#ec3b47;stroke-width:0.26458332"
         d="m 27.413453,76.953477 c -0.206564,-4.766135 -1.216619,-5.862674 -6.90686,-7.498249 -2.421837,-0.696121 -4.080757,-2.13097 -5.269163,-4.55745 -1.242978,-2.53791 -1.460146,-4.335738 -1.221976,-10.116177 0.175027,-4.247953 0.239963,-4.781042 0.418973,-3.439583 0.30976,2.321263 1.481606,5.466125 2.581007,6.926606 1.168398,1.552138 2.995827,2.820966 4.851452,3.368482 0.762239,0.224901 2.010966,0.885952 2.774951,1.468995 0.829851,0.633312 1.389062,0.914985 1.389062,0.699667 0,-0.482949 -0.234298,-0.653703 -3.307291,-2.410335 -3.862241,-2.207795 -4.77389,-3.189126 -5.944047,-6.398393 -0.523887,-1.436809 -0.582015,-2.000137 -0.477734,-4.629811 0.177464,-4.475178 0.801091,-5.613541 5.771143,-10.534586 2.959561,-2.930379 3.751554,-4.174307 4.379874,-6.879166 0.298844,-1.286492 0.332324,-0.63461 0.288775,5.622604 l -0.04926,7.077813 1.124479,-2.09e-4 1.124479,-2.09e-4 v -5.779825 c 0,-5.443808 0.03076,-5.807667 0.529167,-6.258716 0.52775,-0.477607 0.529166,-0.46213 0.529166,5.779826 v 6.258715 h 5.073204 5.073205 l -0.621408,0.661459 c -0.615083,0.654726 -0.666719,0.661458 -5.073204,0.661458 H 29.99965 v 14.378783 c 0,14.042765 -0.01237,14.389975 -0.529166,14.857674 -0.52857,0.478348 -0.529167,0.462129 -0.529167,-14.378783 V 46.976393 h -1.54503 c -1.420987,0 -1.571108,0.05723 -1.869834,0.712865 -0.178642,0.392075 -1.457044,1.784871 -2.840894,3.095102 -1.38385,1.31023 -2.68555,2.709935 -2.892667,3.110454 -1.119117,2.164135 0.173005,5.121917 3.063008,7.011494 2.618995,1.712383 2.840399,1.888593 3.5625,2.835317 0.92932,1.218401 1.243409,3.927827 1.139003,9.825392 -0.04637,2.619375 -0.111148,4.143282 -0.14395,3.38646 z"
         id="path33"
         inkscape:connector-curvature="0" />
      <path
         style="fill:#d7474f;stroke-width:0.26458332"
         d="m 27.413453,76.953477 c -0.206564,-4.766135 -1.216619,-5.862674 -6.90686,-7.498249 -2.421837,-0.696121 -4.080757,-2.13097 -5.269163,-4.55745 -1.242978,-2.53791 -1.460146,-4.335738 -1.221976,-10.116177 0.175027,-4.247953 0.239963,-4.781042 0.418973,-3.439583 0.30976,2.321263 1.481606,5.466125 2.581007,6.926606 1.168398,1.552138 2.995827,2.820966 4.851452,3.368482 0.762239,0.224901 2.010966,0.885952 2.774951,1.468995 0.829851,0.633312 1.389062,0.914985 1.389062,0.699667 0,-0.482949 -0.234298,-0.653703 -3.307291,-2.410335 -3.862241,-2.207795 -4.77389,-3.189126 -5.944047,-6.398393 -0.523887,-1.436809 -0.582015,-2.000137 -0.477734,-4.629811 0.177464,-4.475178 0.801091,-5.613541 5.771143,-10.534586 2.959561,-2.930379 3.751554,-4.174307 4.379874,-6.879166 0.298844,-1.286492 0.332324,-0.63461 0.288775,5.622604 l -0.04926,7.077813 1.124479,-2.09e-4 1.124479,-2.09e-4 v -5.779825 c 0,-5.443808 0.03076,-5.807667 0.529167,-6.258716 0.52775,-0.477607 0.529166,-0.46213 0.529166,5.779826 v 6.258715 h 5.073204 5.073205 l -0.621408,0.661459 c -0.615083,0.654726 -0.666719,0.661458 -5.073204,0.661458 H 29.99965 v 14.378783 c 0,14.042765 -0.01237,14.389975 -0.529166,14.857674 -0.52857,0.478348 -0.529167,0.462129 -0.529167,-14.378783 V 46.976393 h -1.54503 c -1.420987,0 -1.571108,0.05723 -1.869834,0.712865 -0.178642,0.392075 -1.457044,1.784871 -2.840894,3.095102 -1.38385,1.31023 -2.68555,2.709935 -2.892667,3.110454 -1.119117,2.164135 0.173005,5.121917 3.063008,7.011494 2.618995,1.712383 2.840399,1.888593 3.5625,2.835317 0.92932,1.218401 1.243409,3.927827 1.139003,9.825392 -0.04637,2.619375 -0.111148,4.143282 -0.14395,3.38646 z m -0.686737,-8.082814 c -0.205899,-2.9753 -0.445042,-3.696589 -1.374377,-4.145306 -0.427156,-0.206248 -0.895711,-0.520494 -1.041231,-0.698323 -0.145521,-0.177829 -1.524059,-0.93799 -3.063418,-1.689246 -2.911102,-1.420706 -4.785806,-2.91548 -5.599218,-4.464473 -0.66522,-1.266788 -1.007012,-0.827182 -0.845752,1.087787 0.35389,4.202459 0.390495,4.356764 1.323383,5.57853 0.49993,0.654738 0.911109,1.346401 0.913732,1.537034 0.0059,0.42705 2.045243,2.154586 2.543503,2.154586 0.199179,0 0.362145,0.09922 0.362145,0.220488 0,0.121267 0.204378,0.220485 0.454175,0.220485 0.249796,0 0.934405,0.166283 1.521354,0.369515 0.586948,0.203234 1.60296,0.526328 2.257804,0.717986 0.654844,0.191659 1.346204,0.56116 1.536357,0.821111 0.190153,0.25995 0.529527,0.472638 0.754166,0.472638 0.347391,0 0.385857,-0.326234 0.257377,-2.182812 z M 18.562624,55.301948 c 0.07087,-0.856281 0.671097,-2.015852 1.514574,-2.925978 0.364119,-0.392891 0.662035,-0.788607 0.662035,-0.879368 0,-0.09076 0.595312,-0.636574 1.322916,-1.212917 0.727604,-0.576344 1.322917,-1.156182 1.322917,-1.28853 0,-0.132349 0.208172,-0.392853 0.462605,-0.578899 0.723394,-0.528958 0.240246,-0.724021 -2.115887,-0.854251 -2.396319,-0.132452 -2.844635,-0.335129 -2.844635,-1.286016 0,-0.896967 0.984399,-1.235489 3.836459,-1.319307 1.309687,-0.03849 2.516827,-0.07605 2.682533,-0.08347 0.390503,-0.01748 0.73619,-1.672568 0.665959,-3.188486 -0.09791,-2.113392 -0.349603,-3.704167 -0.586073,-3.704167 -0.126848,0 -0.57304,0.327422 -0.991537,0.727604 -0.418497,0.400182 -1.315571,1.240175 -1.993498,1.86665 -0.677926,0.626476 -1.232593,1.251554 -1.232593,1.389063 0,0.137509 -0.168883,0.250016 -0.375296,0.250016 -0.206412,0 -0.639797,0.427973 -0.963077,0.951051 -0.32328,0.523078 -0.868772,1.232042 -1.212204,1.575474 -0.343433,0.343432 -0.624423,0.813171 -0.624423,1.043864 0,0.230693 -0.239797,0.889484 -0.532883,1.463979 -0.638579,1.251718 -1.001266,4.06427 -0.559322,4.337406 0.164151,0.101451 0.298455,0.719123 0.298455,1.372605 0,0.653482 0.173845,1.524329 0.386323,1.935215 0.212477,0.410886 0.311696,0.821692 0.220486,0.912902 -0.09121,0.09121 0.0066,0.165837 0.217428,0.165837 0.219173,0 0.407015,-0.286974 0.438738,-0.670277 z"
         id="path31"
         inkscape:connector-curvature="0" />
      <path
         style="fill:#ad5357;stroke-width:0.26458332"
         d="m 27.413453,76.953477 c -0.206564,-4.766135 -1.216619,-5.862674 -6.90686,-7.498249 -2.421837,-0.696121 -4.080757,-2.13097 -5.269163,-4.55745 -1.242978,-2.53791 -1.460146,-4.335738 -1.221976,-10.116177 0.175027,-4.247953 0.239963,-4.781042 0.418973,-3.439583 0.30976,2.321263 1.481606,5.466125 2.581007,6.926606 1.168398,1.552138 2.995827,2.820966 4.851452,3.368482 0.762239,0.224901 2.010966,0.885952 2.774951,1.468995 0.829851,0.633312 1.389062,0.914985 1.389062,0.699667 0,-0.482949 -0.234298,-0.653703 -3.307291,-2.410335 -3.862241,-2.207795 -4.77389,-3.189126 -5.944047,-6.398393 -0.523887,-1.436809 -0.582015,-2.000137 -0.477734,-4.629811 0.177464,-4.475178 0.801091,-5.613541 5.771143,-10.534586 2.959561,-2.930379 3.751554,-4.174307 4.379874,-6.879166 0.298844,-1.286492 0.332324,-0.63461 0.288775,5.622604 l -0.04926,7.077813 1.124479,-2.09e-4 1.124479,-2.09e-4 v -5.779825 c 0,-5.443808 0.03076,-5.807667 0.529167,-6.258716 0.52775,-0.477607 0.529166,-0.46213 0.529166,5.779826 v 6.258715 h 5.073204 5.073205 l -0.621408,0.661459 c -0.615083,0.654726 -0.666719,0.661458 -5.073204,0.661458 H 29.99965 v 14.378783 c 0,14.042765 -0.01237,14.389975 -0.529166,14.857674 -0.52857,0.478348 -0.529167,0.462129 -0.529167,-14.378783 V 46.976393 h -1.54503 c -1.423769,0 -1.57071,0.05636 -1.872215,0.71809 -0.179951,0.39495 -1.40782,1.734403 -2.728598,2.976563 -1.320778,1.242159 -2.620962,2.615659 -2.889297,3.052222 -0.268335,0.436562 -0.488327,0.656186 -0.488871,0.488054 -0.0014,-0.424729 1.382466,-2.008981 3.642034,-4.169483 1.052275,-1.00614 1.913227,-2.047937 1.913227,-2.315104 0,-0.267167 -0.02977,-0.493891 -0.06615,-0.503832 -0.03638,-0.0099 -1.375833,-0.08194 -2.976562,-0.160003 -1.60073,-0.07806 -2.963334,-0.1923 -3.02801,-0.25386 -0.06468,-0.06156 0.113918,-0.336044 0.396875,-0.609962 0.415886,-0.4026 1.069532,-0.527124 3.411183,-0.649856 2.104933,-0.110325 3.008941,-0.263853 3.307292,-0.56168 0.329215,-0.328636 0.427385,-1.253806 0.4954,-4.668699 0.05107,-2.564106 -0.01894,-4.362605 -0.175925,-4.519593 -0.171276,-0.171276 -0.50665,0.135536 -0.977373,0.894135 -0.394143,0.635186 -1.880851,2.285977 -3.303796,3.668425 -2.655873,2.580288 -4.491272,4.773714 -4.491272,5.367376 0,0.184643 -0.208359,0.630097 -0.46302,0.989898 -0.685781,0.968912 -0.664452,6.466207 0.03231,8.3271 0.272431,0.727604 0.639465,1.441979 0.81563,1.5875 0.176166,0.145521 0.489049,0.612979 0.695296,1.038797 0.482235,0.995621 1.203248,1.297154 0.922238,0.385688 -0.106952,-0.346903 -0.235862,-1.285578 -0.286467,-2.085943 L 19.188206,54.517018 19.37,55.839934 c 0.09999,0.727604 0.509352,1.881354 0.9097,2.563892 0.706347,1.204219 1.278628,1.699596 4.010005,3.47113 2.111725,1.369636 2.750076,2.370544 3.073329,4.818864 0.153273,1.160883 0.240737,4.253822 0.194366,6.873197 -0.04637,2.619375 -0.111148,4.143282 -0.143949,3.38646 z m -0.181564,-8.281252 c -0.229148,-3.034913 -0.562853,-4.233333 -1.178791,-4.233333 -0.267615,0 -0.629893,-0.172691 -0.805063,-0.383759 -0.423543,-0.510337 -2.698271,-1.761779 -4.529631,-2.491976 -0.811821,-0.323686 -1.905219,-0.942289 -2.429775,-1.374671 -1.115076,-0.919142 -3.012464,-3.718846 -3.248448,-4.793276 -0.287713,-1.309949 -0.57005,-0.805656 -0.729531,1.303043 -0.231206,3.057075 0.201822,5.98583 1.159263,7.840586 1.64578,3.188208 2.809697,4.054461 7.139896,5.313915 1.247098,0.362722 2.735379,1.000895 3.307292,1.418161 1.025355,0.748096 1.042938,0.750946 1.262216,0.204468 0.122307,-0.304811 0.145964,-1.566231 0.05257,-2.803158 z"
         id="path29"
         inkscape:connector-curvature="0" />
      <path
         style="fill:#6f6262;stroke-width:0.26458332"
         d="m 27.435802,76.742017 c 0.0015,-0.873125 0.05088,-1.198414 0.109766,-0.722866 0.05889,0.475549 0.05767,1.189924 -0.0027,1.5875 -0.06037,0.397576 -0.108551,0.0085 -0.107065,-0.864634 z m 1.505514,-14.90795 V 46.976393 h -5.027083 c -2.764896,0 -5.027084,-0.100609 -5.027084,-0.223576 0,-0.122967 0.217735,-0.420623 0.483855,-0.661458 0.410688,-0.371669 1.170857,-0.437883 5.027083,-0.437883 h 4.543229 v -5.779825 c 0,-5.443808 0.03076,-5.807667 0.529167,-6.258716 0.52775,-0.477607 0.529166,-0.46213 0.529166,5.779826 v 6.258715 h 5.073204 5.073205 l -0.621408,0.661459 c -0.615083,0.654726 -0.666719,0.661458 -5.073204,0.661458 h -4.451797 v 14.378783 c 0,14.042765 -0.01237,14.389975 -0.529166,14.857674 -0.52857,0.478348 -0.529167,0.462129 -0.529167,-14.378783 z m -2.975262,1.744929 c -0.214658,-0.327421 -1.185036,-1.059936 -2.156395,-1.627811 -1.671978,-0.977469 -2.307843,-1.489819 -1.829271,-1.473941 0.776158,0.02575 5.254831,3.697065 4.510088,3.697065 -0.07377,0 -0.309763,-0.267891 -0.524422,-0.595313 z M 14.200324,51.077434 c 0.002,-0.727604 0.05337,-0.993857 0.114185,-0.591674 0.06082,0.402183 0.05919,0.997496 -0.0036,1.322917 -0.0628,0.32542 -0.112561,-0.0036 -0.110574,-0.731243 z M 26.62145,32.42431 c 0,-0.509323 0.05445,-0.717682 0.121,-0.463021 0.06655,0.254662 0.06655,0.671381 0,0.926042 -0.06655,0.254661 -0.121,0.0463 -0.121,-0.463021 z"
         id="path27"
         inkscape:connector-curvature="0" />
      <path
         style="fill:#56090a;stroke-width:0.26458332"
         d="M 28.941316,61.541678 V 46.738214 l -5.027083,0.160493 c -3.286855,0.104936 -5.027084,0.06877 -5.027084,-0.104486 0,-0.145739 0.229517,-0.472691 0.510038,-0.726558 0.450921,-0.408079 1.025923,-0.451992 4.960938,-0.378874 l 4.450899,0.0827 0.07143,-5.792955 c 0.06823,-5.533228 0.19968,-6.495894 0.887006,-6.495894 0.127702,0 0.232162,2.768203 0.232131,6.151562 l -5.5e-5,6.151562 4.894847,-0.03605 c 2.692166,-0.01983 4.894847,0.04565 4.894847,0.14552 0,0.684131 -0.845407,0.816576 -5.212292,0.816576 h -4.577292 v 14.499166 c 0,14.411054 -0.04045,15.134166 -0.846666,15.134166 -0.116417,0 -0.211667,-6.66156 -0.211667,-14.803464 z"
         id="path25"
         inkscape:connector-curvature="0" />
      <path
         style="fill:#0d0b0b;stroke-width:0.26458332"
         d="M 28.941316,61.537784 V 46.71181 l -1.521354,-0.0041 c -0.836745,-0.0022 -1.699948,-0.132522 -1.918229,-0.289542 -0.334994,-0.240976 -0.324681,-0.262267 0.06614,-0.136544 0.254662,0.08192 0.463021,0.03362 0.463021,-0.107333 0,-0.140954 0.654844,-0.256279 1.455209,-0.256279 h 1.455208 V 40.07828 c 0,-4.708324 0.07323,-5.912962 0.377976,-6.217708 0.207887,-0.207887 0.446012,-0.377976 0.529167,-0.377976 0.08316,0 0.15119,2.807665 0.15119,6.239257 v 6.239257 l 4.89501,-0.08769 c 2.692256,-0.04823 4.894913,-0.02221 4.894791,0.05783 -9.66e-4,0.644847 -0.907029,0.780521 -5.212509,0.780521 h -4.577292 v 14.542774 c 0,14.271985 -0.0099,14.548046 -0.529166,14.825974 -0.526241,0.281636 -0.529167,0.201213 -0.529167,-14.542774 z"
         id="path23"
         inkscape:connector-curvature="0" />
    </g>
    <g
       transform="matrix(0.86224608,0,0,0.85732376,20.564602,-5.2691361)"
       id="layer1-9"
       inkscape:label="Layer 1">
      <text
         id="text12"
         y="17.197548"
         x="23.556801"
         style="font-style:normal;font-weight:normal;font-size:10.58333302px;line-height:1.25;font-family:sans-serif;letter-spacing:0px;word-spacing:0px;fill:#000000;fill-opacity:1;stroke:none;stroke-width:0.26458332"
         xml:space="preserve"><tspan
           style="stroke-width:0.26458332"
           y="26.853043"
           x="23.556801"
           id="tspan10"
           sodipodi:role="line" /></text>
      <flowRoot
         style="font-style:normal;font-weight:normal;font-size:29.33333397px;line-height:1.25;font-family:sans-serif;letter-spacing:0px;word-spacing:0px;fill:#000000;fill-opacity:1;stroke:none"
         id="flowRoot26"
         xml:space="preserve"><flowRegion
           style="font-size:29.33333397px"
           id="flowRegion28"><rect
             style="font-size:29.33333397px"
             y="43.23484"
             x="38.581219"
             height="159.27118"
             width="720.18274"
             id="rect30" /></flowRegion><flowPara
           id="flowPara32" /></flowRoot>      <flowRoot
         transform="scale(0.26458333)"
         style="font-style:normal;font-weight:normal;font-size:40px;line-height:1.25;font-family:sans-serif;letter-spacing:0px;word-spacing:0px;fill:#000000;fill-opacity:1;stroke:none"
         id="flowRoot34"
         xml:space="preserve"><flowRegion
           id="flowRegion36"><rect
             y="29.38517"
             x="34.624168"
             height="288.8645"
             width="713.25793"
             id="rect38" /></flowRegion><flowPara
           id="flowPara40" /></flowRoot>      <flowRoot
         transform="scale(0.26458333)"
         style="font-style:normal;font-weight:normal;font-size:29.33333397px;line-height:1.25;font-family:sans-serif;letter-spacing:0px;word-spacing:0px;fill:#000000;fill-opacity:1;stroke:none"
         id="flowRoot42"
         xml:space="preserve"><flowRegion
           style="font-size:29.33333397px"
           id="flowRegion44"><rect
             style="font-size:29.33333397px"
             y="27.406647"
             x="30.667122"
             height="137.50742"
             width="730.07538"
             id="rect46" /></flowRegion><flowPara
           id="flowPara48" /></flowRoot>      <g
         transform="translate(1.046969,34.549975)"
         id="g85">
        <text
           xml:space="preserve"
           style="font-style:normal;font-weight:normal;font-size:9.87777805px;line-height:11.25;font-family:sans-serif;letter-spacing:0px;word-spacing:0px;fill:#000000;fill-opacity:1;stroke:none;stroke-width:0.26458332"
           x="5.4965868"
           y="23.217619"
           id="text62"><tspan
             sodipodi:role="line"
             id="tspan60"
             x="5.4965868"
             y="23.217619"
             style="font-style:normal;font-variant:normal;font-weight:normal;font-stretch:normal;font-family:'Trajan Pro';-inkscape-font-specification:'Trajan Pro';stroke-width:0.26458332">Trinity United Methodist Church</tspan></text>
      </g>
      <flowRoot
         style="font-style:normal;font-weight:normal;font-size:29.33333397px;line-height:1.25;font-family:sans-serif;letter-spacing:0px;word-spacing:0px;fill:#000000;fill-opacity:1;stroke:none"
         id="flowRoot64"
         xml:space="preserve"><flowRegion
           id="flowRegion66"><rect
             y="53.12746"
             x="561.90082"
             height="51.441624"
             width="167.18527"
             id="rect68" /></flowRegion><flowPara
           id="flowPara70" /></flowRoot>      <text
         id="text74"
         y="50.177067"
         x="201.54153"
         style="font-style:normal;font-weight:normal;font-size:3.52777767px;line-height:1.25;font-family:sans-serif;letter-spacing:0px;word-spacing:0px;fill:#000000;fill-opacity:1;stroke:none;stroke-width:0.26458332"
         xml:space="preserve"><tspan
           style="font-style:normal;font-variant:normal;font-weight:normal;font-stretch:normal;font-family:'Trajan Pro';-inkscape-font-specification:'Trajan Pro';stroke-width:0.26458332"
           y="50.177067"
           x="201.54153"
           id="tspan72"
           sodipodi:role="line">TM</tspan></text>
      <text
         id="text89"
         y="45.989193"
         x="6.5435548"
         style="font-style:normal;font-weight:normal;font-size:7.76111126px;line-height:1.25;font-family:sans-serif;letter-spacing:0px;word-spacing:0px;fill:#000000;fill-opacity:1;stroke:none;stroke-width:0.26458332"
         xml:space="preserve"><tspan
           style="font-style:normal;font-variant:normal;font-weight:normal;font-stretch:normal;font-family:'Trajan Pro';-inkscape-font-specification:'Trajan Pro';stroke-width:0.26458332"
           y="45.989193"
           x="6.5435548"
           id="tspan87"
           sodipodi:role="line">Open hearts. Open minds. Open doors.</tspan></text>
    </g>
  </g>
</svg>
